<?xml version="1.0" encoding="UTF-8"?>
<!DOCTYPE svg PUBLIC "-//W3C//DTD SVG 1.1//EN" "http://www.w3.org/Graphics/SVG/1.1/DTD/svg11.dtd">
<!-- Creator: CorelDRAW -->
<svg xmlns="http://www.w3.org/2000/svg" xml:space="preserve" width="501px" height="168px" version="1.1" style="shape-rendering:geometricPrecision; text-rendering:geometricPrecision; image-rendering:optimizeQuality; fill-rule:evenodd; clip-rule:evenodd"
viewBox="0 0 36.52 12.29"
 xmlns:xlink="http://www.w3.org/1999/xlink"
 xmlns:xodm="http://www.corel.com/coreldraw/odm/2003">
 <defs>
  <style type="text/css">
   <![CDATA[
    .fil0 {fill:#1E45A1;fill-rule:nonzero}
    .fil1 {fill:#666666;fill-rule:nonzero}
   ]]>
  </style>
 </defs>
 <g id="Layer_x0020_1">
  <metadata id="CorelCorpID_0Corel-Layer"/>
  <g id="_1774743324816">
   <path class="fil0" d="M36.52 2.65l0 4.69c0,0.23 -0.18,0.42 -0.41,0.42l-0.52 0c-0.22,0 -0.41,-0.19 -0.41,-0.42l0 -2.57c0,-0.02 -0.02,-0.05 -0.05,-0.05 -0.03,-0.01 -0.06,0.01 -0.07,0.03l-1.02 2.74c-0.06,0.16 -0.21,0.27 -0.39,0.27l-0.51 0c-0.17,0 -0.32,-0.1 -0.39,-0.27l-1.02 -2.75c-0.01,-0.02 -0.04,-0.04 -0.07,-0.03 -0.03,0 -0.05,0.03 -0.05,0.06l0 2.57c0,0.23 -0.19,0.42 -0.42,0.42l-0.51 0c-0.23,0 -0.42,-0.19 -0.42,-0.42l0 -4.69c0,-0.23 0.19,-0.42 0.42,-0.42l0.89 0c0.18,0 0.33,0.1 0.39,0.26l1.39 3.43c0.01,0.03 0.03,0.04 0.06,0.04 0.02,0 0.04,-0.01 0.05,-0.04l1.38 -3.43c0.06,-0.16 0.21,-0.26 0.38,-0.26l0.89 0c0.23,0 0.41,0.19 0.41,0.42zm-25.33 -2.1c0.13,0.39 0.37,0.78 0.76,1.17 0.14,0.14 0.31,0.2 0.51,0.2 0.17,0 0.4,0 0.57,0 0.2,0 0.37,-0.06 0.5,-0.2 0.4,-0.39 0.64,-0.78 0.77,-1.17 0.04,-0.13 0.02,-0.26 -0.06,-0.38 -0.08,-0.11 -0.2,-0.17 -0.34,-0.17 -0.77,0 -1.54,0 -2.32,0 -0.14,0 -0.26,0.06 -0.34,0.17 -0.08,0.12 -0.1,0.25 -0.05,0.38zm2.16 1.87c0.53,2.39 1,4.85 1.28,7.58 0.01,0.1 -0.01,0.18 -0.06,0.27 -0.47,0.71 -0.98,1.35 -1.53,1.9 -0.17,0.16 -0.43,0.16 -0.59,0 -0.55,-0.55 -1.06,-1.19 -1.53,-1.9 -0.06,-0.09 -0.08,-0.17 -0.07,-0.27 0.28,-2.73 0.76,-5.19 1.28,-7.58 0.03,-0.11 0.12,-0.19 0.24,-0.19 0.25,0 0.5,0 0.75,0 0.11,0 0.21,0.08 0.23,0.19zm-12 0.23l0 2.89c0,0.33 0.08,0.58 0.24,0.76 0.16,0.18 0.4,0.27 0.72,0.27 0.31,0 0.55,-0.09 0.72,-0.27 0.17,-0.18 0.25,-0.43 0.25,-0.76l0 -2.89c0,-0.23 0.19,-0.42 0.42,-0.42l0.51 0c0.23,0 0.42,0.19 0.42,0.42l0 2.88c0,0.49 -0.1,0.91 -0.31,1.25 -0.21,0.34 -0.5,0.6 -0.85,0.78 -0.36,0.17 -0.75,0.26 -1.19,0.26 -0.43,0 -0.82,-0.09 -1.17,-0.26 -0.34,-0.17 -0.61,-0.43 -0.81,-0.77 -0.2,-0.35 -0.3,-0.77 -0.3,-1.26l0 -2.88c0,-0.23 0.19,-0.42 0.42,-0.42l0.51 0c0.23,0 0.42,0.19 0.42,0.42zm8.59 5.11l-0.71 0c-0.14,0 -0.27,-0.07 -0.35,-0.19l-2.02 -3.05c-0.01,-0.03 -0.04,-0.04 -0.06,-0.03 -0.03,0.01 -0.04,0.03 -0.04,0.06l0 2.79c0,0.23 -0.19,0.42 -0.42,0.42l-0.51 0c-0.23,0 -0.42,-0.19 -0.42,-0.42l0 -4.69c0,-0.23 0.19,-0.42 0.42,-0.42l0.7 0c0.14,0 0.27,0.07 0.35,0.19l2.02 3.07c0.01,0.02 0.04,0.03 0.06,0.03 0.03,-0.01 0.05,-0.03 0.05,-0.06l0 -2.81c0,-0.23 0.18,-0.42 0.41,-0.42l0.52 0c0.23,0 0.41,0.19 0.41,0.42l0 4.69c0,0.23 -0.18,0.42 -0.41,0.42zm8.79 -5.11l0 0.24c0,0.23 -0.19,0.42 -0.41,0.42l-1.42 0c-0.23,0 -0.42,0.19 -0.42,0.42l0 0.33c0,0.23 0.19,0.42 0.42,0.42l0.85 0c0.23,0 0.42,0.18 0.42,0.41l0 0.22c0,0.23 -0.19,0.41 -0.42,0.41l-0.85 0c-0.23,0 -0.42,0.19 -0.42,0.42l0 1.4c0,0.23 -0.19,0.42 -0.42,0.42l-0.51 0c-0.23,0 -0.42,-0.19 -0.42,-0.42l0 -4.69c0,-0.23 0.19,-0.42 0.42,-0.42l2.77 0c0.22,0 0.41,0.19 0.41,0.42zm3.16 3.94c0.44,0 0.79,-0.15 1.06,-0.44 0.26,-0.3 0.4,-0.69 0.4,-1.17 0,-0.49 -0.14,-0.88 -0.4,-1.17 -0.27,-0.29 -0.62,-0.44 -1.06,-0.44 -0.45,0 -0.8,0.15 -1.07,0.44 -0.26,0.29 -0.4,0.68 -0.4,1.17 0,0.49 0.14,0.88 0.4,1.17 0.27,0.29 0.62,0.44 1.07,0.44zm0 1.23c-0.52,0 -1,-0.13 -1.43,-0.37 -0.43,-0.24 -0.78,-0.58 -1.03,-1.01 -0.26,-0.43 -0.38,-0.92 -0.38,-1.46 0,-0.54 0.12,-1.03 0.38,-1.46 0.25,-0.43 0.6,-0.76 1.03,-1 0.43,-0.25 0.91,-0.37 1.43,-0.37 0.52,0 0.99,0.12 1.43,0.37 0.43,0.24 0.77,0.57 1.02,1 0.25,0.43 0.38,0.92 0.38,1.46 0,0.54 -0.13,1.03 -0.38,1.46 -0.25,0.43 -0.6,0.77 -1.03,1.01 -0.43,0.24 -0.9,0.37 -1.42,0.37zm4.93 -3.1l0.66 0c0.24,0 0.43,-0.06 0.55,-0.18 0.13,-0.12 0.19,-0.29 0.19,-0.51 0,-0.21 -0.06,-0.38 -0.19,-0.5 -0.12,-0.12 -0.31,-0.18 -0.55,-0.18l-0.66 0c-0.1,0 -0.18,0.08 -0.18,0.18l0 1.01c0,0.1 0.08,0.18 0.18,0.18zm0.02 0.95c-0.12,0 -0.2,0.08 -0.2,0.18l0 1.49c0,0.23 -0.18,0.42 -0.41,0.42l-0.52 0c-0.23,0 -0.41,-0.19 -0.41,-0.42l0 -4.69c0,-0.23 0.18,-0.42 0.41,-0.42l1.85 0c0.43,0 0.8,0.08 1.11,0.23 0.31,0.15 0.54,0.36 0.69,0.63 0.15,0.26 0.23,0.56 0.23,0.88 0,0.37 -0.11,0.7 -0.31,0.99 -0.17,0.24 -0.42,0.42 -0.72,0.54 -0.05,0.02 -0.09,0.06 -0.11,0.11 -0.01,0.05 -0.01,0.1 0.02,0.15l0.8 1.37c0.08,0.14 0.08,0.29 0,0.42 -0.07,0.13 -0.21,0.21 -0.36,0.21l-0.55 0c-0.15,0 -0.29,-0.08 -0.36,-0.22l-0.98 -1.77c-0.04,-0.06 -0.09,-0.1 -0.18,-0.1z"/>
   <path class="fil1" d="M21.03 11.47c0.29,0 0.53,-0.1 0.7,-0.29 0.18,-0.2 0.27,-0.46 0.27,-0.78 0,-0.33 -0.09,-0.59 -0.27,-0.78 -0.17,-0.2 -0.41,-0.29 -0.7,-0.29 -0.3,0 -0.54,0.09 -0.72,0.29 -0.17,0.19 -0.26,0.45 -0.26,0.78 0,0.32 0.09,0.58 0.26,0.78 0.18,0.19 0.42,0.29 0.72,0.29zm2.36 -2.67l0 3.2c0,0.16 0.13,0.29 0.28,0.29l0.35 0c0.16,0 0.29,-0.13 0.29,-0.29l0 -1.01c0,-0.07 0.05,-0.13 0.12,-0.13l0.03 0c0.04,0 0.08,0.03 0.1,0.07l0.67 1.21c0.05,0.09 0.15,0.15 0.25,0.15l0.38 0c0.1,0 0.19,-0.05 0.24,-0.15 0.05,-0.09 0.05,-0.19 0,-0.28l-0.55 -0.94c-0.01,-0.03 -0.02,-0.07 -0.01,-0.1 0.02,-0.03 0.04,-0.06 0.07,-0.07 0.21,-0.09 0.38,-0.21 0.5,-0.38 0.14,-0.19 0.21,-0.42 0.21,-0.67 0,-0.22 -0.05,-0.42 -0.16,-0.6 -0.1,-0.18 -0.26,-0.33 -0.47,-0.43 -0.21,-0.1 -0.46,-0.16 -0.76,-0.16l-1.26 0c-0.15,0 -0.28,0.13 -0.28,0.29zm1.49 1.41l-0.45 0c-0.07,0 -0.12,-0.05 -0.12,-0.12l0 -0.69c0,-0.07 0.05,-0.12 0.12,-0.12l0.45 0c0.17,0 0.29,0.04 0.38,0.12 0.08,0.08 0.12,0.2 0.12,0.34 0,0.15 -0.04,0.27 -0.12,0.35 -0.09,0.08 -0.21,0.12 -0.38,0.12zm9.77 0.65c0.06,0 0.1,0.03 0.12,0.07l0.67 1.21c0.05,0.09 0.14,0.15 0.25,0.15l0.37 0c0.11,0 0.2,-0.05 0.25,-0.15 0.05,-0.09 0.05,-0.19 0,-0.28l-0.55 -0.94c-0.02,-0.03 -0.02,-0.07 -0.01,-0.1 0.01,-0.03 0.04,-0.06 0.07,-0.07 0.21,-0.09 0.37,-0.21 0.49,-0.38 0.14,-0.19 0.21,-0.42 0.21,-0.67 0,-0.22 -0.05,-0.42 -0.15,-0.6 -0.11,-0.18 -0.26,-0.33 -0.47,-0.43 -0.21,-0.1 -0.46,-0.16 -0.76,-0.16l-1.26 0c-0.16,0 -0.28,0.13 -0.28,0.29l0 3.2c0,0.16 0.12,0.29 0.28,0.29l0.35 0c0.16,0 0.28,-0.13 0.28,-0.29l0 -1.01c0,-0.07 0.06,-0.13 0.14,-0.13zm0.43 -0.65l-0.44 0c-0.07,0 -0.13,-0.05 -0.13,-0.12l0 -0.69c0,-0.07 0.06,-0.12 0.13,-0.12l0.44 0c0.17,0 0.3,0.04 0.38,0.12 0.09,0.08 0.13,0.2 0.13,0.34 0,0.15 -0.04,0.27 -0.13,0.35 -0.08,0.08 -0.21,0.12 -0.38,0.12zm-4.4 -1.41c0,1.07 0,2.14 0,3.2 0,0.16 0.12,0.29 0.28,0.29l1.89 0c0.15,0 0.28,-0.13 0.28,-0.29l0 -0.16c0,-0.16 -0.13,-0.29 -0.28,-0.29l-0.97 0c-0.16,0 -0.29,-0.13 -0.29,-0.28l0 -0.22c0,-0.16 0.13,-0.29 0.29,-0.29l0.58 0c0.16,0 0.28,-0.13 0.28,-0.28 0,-0.05 0,-0.1 0,-0.15 0,-0.16 -0.12,-0.29 -0.28,-0.29l-0.58 0c-0.16,0 -0.29,-0.13 -0.29,-0.28l0 -0.22c0,-0.16 0.13,-0.29 0.29,-0.29l0.97 0c0.15,0 0.28,-0.13 0.28,-0.28l0 -0.17c0,-0.16 -0.13,-0.29 -0.28,-0.29l-1.89 0c-0.16,0 -0.28,0.13 -0.28,0.29zm-2.97 3.2l0 -1.9c0,-0.02 0.01,-0.04 0.03,-0.04 0.02,-0.01 0.03,0 0.04,0.01l1.38 2.09c0.06,0.08 0.14,0.13 0.24,0.13l0.48 0c0.16,0 0.28,-0.13 0.28,-0.29l0 -3.2c0,-0.16 -0.12,-0.29 -0.28,-0.29l-0.35 0c-0.16,0 -0.28,0.13 -0.28,0.29l0 1.92c0,0.02 -0.02,0.03 -0.03,0.04 -0.02,0 -0.04,-0.01 -0.05,-0.02l-1.38 -2.1c-0.05,-0.08 -0.14,-0.13 -0.23,-0.13l-0.49 0c-0.15,0 -0.28,0.13 -0.28,0.29l0 3.2c0,0.16 0.13,0.29 0.28,0.29l0.35 0c0.16,0 0.29,-0.13 0.29,-0.29zm-12.58 -1.6c0,-0.36 0.08,-0.68 0.24,-0.97 0.16,-0.28 0.38,-0.51 0.66,-0.67 0.28,-0.16 0.6,-0.23 0.96,-0.23 0.43,0 0.81,0.11 1.12,0.34 0.24,0.18 0.42,0.42 0.54,0.7 0.02,0.06 0.02,0.12 -0.02,0.17 -0.03,0.05 -0.08,0.08 -0.14,0.08l-0.64 0c-0.06,0 -0.12,-0.03 -0.15,-0.09 -0.07,-0.11 -0.16,-0.2 -0.27,-0.27 -0.13,-0.08 -0.28,-0.12 -0.45,-0.12 -0.28,0 -0.51,0.1 -0.68,0.29 -0.17,0.19 -0.25,0.45 -0.25,0.77 0,0.33 0.08,0.58 0.25,0.78 0.17,0.19 0.4,0.28 0.68,0.28 0.17,0 0.32,-0.04 0.45,-0.12 0.11,-0.06 0.2,-0.15 0.27,-0.26 0.03,-0.06 0.09,-0.09 0.15,-0.09l0.64 0c0.06,0 0.11,0.03 0.14,0.08 0.04,0.05 0.04,0.11 0.02,0.17 -0.12,0.28 -0.3,0.51 -0.54,0.69 -0.31,0.23 -0.69,0.35 -1.12,0.35 -0.36,0 -0.68,-0.08 -0.96,-0.24 -0.28,-0.16 -0.5,-0.38 -0.66,-0.67 -0.16,-0.28 -0.24,-0.6 -0.24,-0.97zm5.9 1.89c-0.35,0 -0.67,-0.08 -0.96,-0.24 -0.29,-0.16 -0.51,-0.39 -0.68,-0.68 -0.17,-0.29 -0.26,-0.61 -0.26,-0.97 0,-0.36 0.09,-0.69 0.26,-0.97 0.17,-0.29 0.39,-0.51 0.68,-0.67 0.29,-0.17 0.61,-0.25 0.96,-0.25 0.34,0 0.66,0.08 0.95,0.25 0.29,0.16 0.51,0.38 0.68,0.67 0.17,0.28 0.25,0.61 0.25,0.97 0,0.36 -0.08,0.68 -0.25,0.97 -0.17,0.29 -0.4,0.52 -0.68,0.68 -0.29,0.16 -0.61,0.24 -0.95,0.24z"/>
  </g>
 </g>
</svg>
